<svg width="53" height="33" viewBox="0 0 53 33" fill="none" xmlns="http://www.w3.org/2000/svg">
<rect x="0.5" y="0.5" width="6.27454" height="6.45161" stroke="#C4C4C4"/>
<rect x="0.5" y="9.01613" width="6.27454" height="6.45161" stroke="#C4C4C4"/>
<rect x="0.5" y="17.5323" width="6.27454" height="6.45161" stroke="#C4C4C4"/>
<rect x="0.5" y="26.0484" width="6.27454" height="6.45161" stroke="#C4C4C4"/>
<rect x="18.1665" y="0.5" width="7.31376" height="6.45161" stroke="#C4C4C4"/>
<rect x="18.1665" y="9.01613" width="7.31376" height="6.45161" stroke="#C4C4C4"/>
<rect x="18.1665" y="17.5323" width="7.31376" height="6.45161" stroke="#C4C4C4"/>
<rect x="18.1665" y="26.0484" width="7.31376" height="6.45161" stroke="#C4C4C4"/>
<rect x="36.8723" y="0.5" width="7.31376" height="6.45161" stroke="#C4C4C4"/>
<rect x="36.8726" y="9.01613" width="7.31376" height="6.45161" stroke="#C4C4C4"/>
<rect x="36.8726" y="17.5323" width="7.31376" height="6.45161" stroke="#C4C4C4"/>
<rect x="36.8726" y="26.0484" width="7.31376" height="6.45161" stroke="#C4C4C4"/>
<rect x="8.81329" y="0.5" width="7.31376" height="6.45161" stroke="#C4C4C4"/>
<rect x="8.81348" y="9.01613" width="7.31376" height="6.45161" stroke="#C4C4C4"/>
<rect x="8.81348" y="17.5323" width="7.31376" height="6.45161" stroke="#C4C4C4"/>
<rect x="8.81348" y="26.0484" width="7.31376" height="6.45161" stroke="#C4C4C4"/>
<rect x="27.5197" y="0.5" width="7.31376" height="6.45161" stroke="#C4C4C4"/>
<rect x="27.5195" y="9.01613" width="7.31376" height="6.45161" stroke="#C4C4C4"/>
<rect x="27.5195" y="17.5323" width="7.31376" height="6.45161" stroke="#C4C4C4"/>
<rect x="27.5195" y="26.0484" width="7.31376" height="6.45161" stroke="#C4C4C4"/>
<rect x="46.2256" y="0.5" width="6.27454" height="6.45161" stroke="#C4C4C4"/>
<rect x="46.2256" y="9.01613" width="6.27454" height="6.45161" stroke="#C4C4C4"/>
<rect x="46.2256" y="17.5323" width="6.27454" height="6.45161" stroke="#C4C4C4"/>
<rect x="46.2256" y="26.0484" width="6.27454" height="6.45161" stroke="#C4C4C4"/>
</svg>
