<svg width="53" height="33" viewBox="0 0 53 33" fill="none" xmlns="http://www.w3.org/2000/svg">
<rect x="0.5" y="0.5" width="11.4706" height="6.21875" stroke="#C4C4C4"/>
<rect x="14.0098" y="0.5" width="11.4706" height="6.21875" stroke="#C4C4C4"/>
<rect x="27.5196" y="0.5" width="11.4706" height="6.21875" stroke="#C4C4C4"/>
<rect x="41.0294" y="0.5" width="11.4706" height="6.21875" stroke="#C4C4C4"/>
<rect x="0.5" y="8.75" width="11.4706" height="6.21875" stroke="#C4C4C4"/>
<rect x="14.0098" y="8.75" width="11.4706" height="6.21875" stroke="#C4C4C4"/>
<rect x="27.5196" y="8.75" width="11.4706" height="6.21875" stroke="#C4C4C4"/>
<rect x="41.0294" y="8.75" width="11.4706" height="6.21875" stroke="#C4C4C4"/>
<rect x="0.5" y="17" width="11.4706" height="6.21875" stroke="#C4C4C4"/>
<rect x="14.0098" y="17" width="11.4706" height="6.21875" stroke="#C4C4C4"/>
<rect x="27.5196" y="17" width="11.4706" height="6.21875" stroke="#C4C4C4"/>
<rect x="41.0294" y="17" width="11.4706" height="6.21875" stroke="#C4C4C4"/>
<rect x="0.5" y="25.25" width="11.4706" height="7.25" stroke="#C4C4C4"/>
<rect x="14.0098" y="25.25" width="11.4706" height="7.25" stroke="#C4C4C4"/>
<rect x="27.5196" y="25.25" width="11.4706" height="7.25" stroke="#C4C4C4"/>
<rect x="41.0294" y="25.25" width="11.4706" height="7.25" stroke="#C4C4C4"/>
</svg>
